<svg width="94" height="85" viewBox="0 0 94 85" fill="none" xmlns="http://www.w3.org/2000/svg">
<path d="M94 42.0001C94 65.7483 66.7483 85.0001 43 85.0001C19.2518 85.0001 7.62939e-06 65.7483 7.62939e-06 42.0001C7.62939e-06 18.2518 7.50001 13 32 6.00011C56.5 -0.999782 78.2112 -1.83686 86 6.00024C93.726 13.7741 94 30.174 94 42.0001Z" fill="#FBBC05"/>
<g clip-path="url(#clip0_23_261)">
<path d="M67.3125 25.25C69.9004 25.25 72 27.3486 72 29.9375C72 31.4121 71.3066 32.7988 70.125 33.6875L48.875 49.625C47.7617 50.4551 46.2383 50.4551 45.125 49.625L23.875 33.6875C22.6946 32.7988 22 31.4121 22 29.9375C22 27.3486 24.0986 25.25 26.6875 25.25H67.3125ZM43.25 52.125C45.4766 53.7949 48.5234 53.7949 50.75 52.125L72 36.1875V56.5C72 59.9473 69.1973 62.75 65.75 62.75H28.25C24.7979 62.75 22 59.9473 22 56.5V36.1875L43.25 52.125Z" fill="#FCFCFC"/>
</g>
<defs>
<clipPath id="clip0_23_261">
<rect width="50" height="50" fill="white" transform="translate(22 19)"/>
</clipPath>
</defs>
</svg>
