<svg width="84" height="80" viewBox="0 0 84 80" fill="none" xmlns="http://www.w3.org/2000/svg">
<path d="M81 58.5001C76 74.5001 48 84.1501 27.5 78.0001C2.5 70.5001 14.5 63.0001 6.5 39.0001C-1.5 15.0001 -4.74824 0.500129 19 0.500129C30.9222 0.500129 55.8846 -1.24918 69.5 14C82 28 86 42.5001 81 58.5001Z" fill="#EA4335"/>
<path d="M62.9413 51.3185L61.1247 58.577C60.8695 59.6031 59.891 60.321 58.7448 60.321C39.0328 60.3196 23 45.5435 23 27.3758C23 26.3202 23.7789 25.4172 24.8924 25.1831L32.7681 23.509C33.9151 23.264 35.0871 23.8127 35.5637 24.8137L39.1984 32.6266C39.6233 33.5469 39.3367 34.6191 38.4968 35.2513L34.2901 38.3643C36.9451 43.3487 41.3424 47.4013 46.7522 49.8496L50.1963 45.9755C50.8751 45.1993 52.0473 44.9307 53.0458 45.3293L61.5232 48.6784C62.5428 49.1727 63.2069 50.2672 62.9413 51.3185Z" fill="#FCFCFC"/>
</svg>
