<svg width="88" height="80" viewBox="0 0 88 80" fill="none" xmlns="http://www.w3.org/2000/svg">
<path d="M72 76.5C63 83.5 24 76.5 9.00001 72C-0.702038 69.0894 -1.99999 58 3.50001 40C9.00002 22 20.2518 0 44 0C55.9222 0 77.7654 7.87993 85 27C92 45.5 81 69.5 72 76.5Z" fill="#0088CC"/>
<g clip-path="url(#clip0_23_283)">
<path d="M47 16.8064C33.1929 16.8064 22 27.9992 22 41.8064C22 55.6136 33.1929 66.8064 47 66.8064C60.8072 66.8064 72 55.6136 72 41.8064C72 27.9992 60.8072 16.8064 47 16.8064ZM58.5879 33.8084C58.2117 37.7615 56.5838 47.3546 55.7552 51.7822C55.4048 53.6556 54.7147 54.2838 54.0468 54.3452C52.5952 54.4789 51.4925 53.3858 50.0864 52.4641C47.8861 51.0217 46.6431 50.1238 44.5072 48.7164C42.0389 47.0899 43.639 46.1962 45.0457 44.7345C45.4138 44.3522 51.8105 38.5339 51.9343 38.0061C51.9497 37.9401 51.9645 37.6936 51.818 37.5642C51.6714 37.4347 51.4561 37.4786 51.3003 37.5138C51.0797 37.5639 47.5646 39.8872 40.7551 44.4837C39.7575 45.1688 38.8538 45.5026 38.0441 45.4851C37.1514 45.4659 35.4344 44.9805 34.1579 44.5655C32.5922 44.0566 31.3479 43.7875 31.4563 42.9232C31.5127 42.473 32.1327 42.0126 33.3161 41.5422C40.6042 38.3669 45.464 36.2735 47.8956 35.2619C54.8383 32.3741 56.281 31.8725 57.2213 31.8558C57.4281 31.8524 57.8905 31.9036 58.19 32.1466C58.3893 32.3198 58.5162 32.5614 58.5459 32.8236C58.5966 33.1493 58.6107 33.4796 58.5879 33.8084Z" fill="#FCFCFC"/>
</g>
<defs>
<clipPath id="clip0_23_283">
<rect width="50" height="51.6129" fill="white" transform="translate(22 16)"/>
</clipPath>
</defs>
</svg>
