<svg width="95" height="87" viewBox="0 0 95 87" fill="none" xmlns="http://www.w3.org/2000/svg">
<path d="M88 57.5C83.5 73.5 66.7483 87 43 87C19.2518 87 7.62939e-06 67.7483 7.62939e-06 44C7.62939e-06 20.2518 19.2518 1.00003 43 1.00003C54.9222 1.00003 73.5893 -3 88 11.5C101.417 25 91.2019 46.1157 88 57.5Z" fill="#59267C"/>
<g clip-path="url(#clip0_23_265)">
<path d="M65.3594 25.873C64.1191 24.7304 59.0996 21.0879 47.9082 21.039C47.9082 21.039 34.7149 20.248 28.2891 26.1465C24.7149 29.7207 23.4551 34.9648 23.3184 41.459C23.1816 47.9531 23.0156 60.1211 34.7441 63.4219H34.7539L34.7441 68.4609C34.7441 68.4609 34.666 70.5019 36.0137 70.9121C37.6348 71.4199 38.5918 69.8672 40.1445 68.1972C40.9941 67.2793 42.166 65.9316 43.0547 64.9062C51.082 65.5801 57.2441 64.0371 57.9473 63.8125C59.5684 63.2851 68.7383 62.1133 70.2227 49.9453C71.7656 37.3867 69.4805 29.457 65.3594 25.873ZM66.7168 49.0273C65.457 59.1836 58.0254 59.8281 56.6582 60.2676C56.0723 60.4531 50.6523 61.8008 43.8457 61.3613C43.8457 61.3613 38.7676 67.4844 37.1856 69.0761C36.668 69.5937 36.1016 69.5449 36.1113 68.5195C36.1113 67.8457 36.1504 60.1504 36.1504 60.1504C36.1406 60.1504 36.1406 60.1504 36.1504 60.1504C26.209 57.3965 26.7949 47.0351 26.9024 41.6152C27.0098 36.1953 28.0352 31.7519 31.0625 28.7637C36.502 23.832 47.7031 24.5644 47.7031 24.5644C57.166 24.6035 61.6973 27.4551 62.752 28.4121C66.2383 31.4004 68.0156 38.5488 66.7168 49.0273ZM53.1426 41.1367C53.1816 41.9765 51.9219 42.0351 51.8828 41.1953C51.7754 39.0469 50.7695 38.0019 48.6992 37.8847C47.8594 37.8359 47.9375 36.5762 48.7676 36.625C51.4922 36.7715 53.0059 38.334 53.1426 41.1367ZM55.125 42.2402C55.2227 38.0996 52.6348 34.8574 47.7227 34.4961C46.8926 34.4375 46.9805 33.1777 47.8106 33.2363C53.4746 33.6465 56.4922 37.5429 56.3848 42.2695C56.375 43.1094 55.1055 43.0703 55.125 42.2402ZM59.7149 43.5488C59.7246 44.3887 58.4551 44.3984 58.4551 43.5586C58.3965 35.5996 53.0938 31.2637 46.6582 31.2148C45.8281 31.2051 45.8281 29.9551 46.6582 29.9551C53.8555 30.0039 59.6465 34.9746 59.7149 43.5488ZM58.6113 53.1289V53.1484C57.5566 55.0039 55.584 57.0547 53.5527 56.4004L53.5332 56.3711C51.4727 55.7949 46.6191 53.2949 43.5527 50.8535C41.9707 49.6035 40.5254 48.1289 39.4121 46.7129C38.4063 45.4531 37.3906 43.959 36.4043 42.1621C34.3242 38.4023 33.8652 36.7226 33.8652 36.7226C33.2109 34.6914 35.252 32.7187 37.1172 31.664H37.1367C38.0352 31.1953 38.8945 31.3515 39.4707 32.0449C39.4707 32.0449 40.6816 33.4902 41.1992 34.2031C41.6875 34.8672 42.3418 35.9316 42.6836 36.5273C43.2793 37.5918 42.9082 38.6758 42.3223 39.125L41.1504 40.0625C40.5547 40.541 40.6328 41.4297 40.6328 41.4297C40.6328 41.4297 42.3711 48.0019 48.8652 49.6621C48.8652 49.6621 49.7539 49.7402 50.2324 49.1445L51.1699 47.9726C51.6192 47.3867 52.7031 47.0156 53.7676 47.6113C55.2031 48.4219 57.0293 49.6816 58.2402 50.8242C58.9238 51.3808 59.0801 52.2304 58.6113 53.1289Z" fill="#FCFCFC"/>
</g>
<defs>
<clipPath id="clip0_23_265">
<rect width="50" height="50" fill="white" transform="translate(22 21)"/>
</clipPath>
</defs>
</svg>
