<svg width="93" height="89" viewBox="0 0 93 89" fill="none" xmlns="http://www.w3.org/2000/svg">
<path d="M81 65C77.2031 78.5 87.5 88.5 49.5 88.5C25.7518 88.5 7.62939e-06 67.2539 7.62939e-06 43.5056C7.62939e-06 19.7574 19.2518 0.505615 43 0.505615C54.9222 0.505615 78.7018 6.84035 89 24.5C99.5 42.5056 84.7969 51.5 81 65Z" fill="#0BC048"/>
<g clip-path="url(#clip0_23_273)">
<path d="M64.5112 24.8372C59.8348 20.1497 53.6071 17.5715 46.9888 17.5715C33.3281 17.5715 22.2121 28.6876 22.2121 42.3483C22.2121 46.7122 23.3505 50.9755 25.5156 54.7367L22 67.5715L35.1362 64.1229C38.7522 66.0983 42.8259 67.1363 46.9777 67.1363H46.9888C60.6384 67.1363 72 56.0202 72 42.3595C72 35.7412 69.1875 29.5247 64.5112 24.8372ZM46.9888 62.9622C43.2835 62.9622 39.6563 61.9689 36.4978 60.0939L35.75 59.6474L27.9598 61.6898L30.0357 54.0894L29.5447 53.3081C27.4799 50.0269 26.3973 46.2434 26.3973 42.3483C26.3973 30.9979 35.6384 21.7568 47 21.7568C52.5022 21.7568 57.6696 23.8997 61.5536 27.7947C65.4375 31.6898 67.8259 36.8572 67.8147 42.3595C67.8147 53.7211 58.3393 62.9622 46.9888 62.9622ZM58.2835 47.5381C57.6697 47.2256 54.6228 45.73 54.0536 45.5291C53.4844 45.3171 53.0714 45.2166 52.6585 45.8416C52.2455 46.4666 51.0625 47.8506 50.6942 48.2747C50.3371 48.6876 49.9688 48.7434 49.3549 48.4309C45.7165 46.6117 43.3281 45.1831 40.9286 41.0648C40.2924 39.9711 41.5647 40.0492 42.7478 37.6831C42.9487 37.2702 42.8482 36.9131 42.692 36.6006C42.5357 36.2881 41.2969 33.2412 40.7835 32.0023C40.2813 30.797 39.7679 30.9644 39.3884 30.9421C39.0313 30.9197 38.6183 30.9197 38.2054 30.9197C37.7924 30.9197 37.1228 31.076 36.5536 31.6898C35.9844 32.3148 34.3884 33.8104 34.3884 36.8572C34.3884 39.9041 36.6094 42.8506 36.9107 43.2635C37.2232 43.6764 41.2746 49.9264 47.4911 52.6162C51.4196 54.3126 52.9598 54.4577 54.9241 54.1675C56.1183 53.9889 58.5848 52.672 59.0982 51.2211C59.6116 49.7702 59.6116 48.5314 59.4554 48.2747C59.3103 47.9956 58.8973 47.8394 58.2835 47.5381Z" fill="#FCFCFC"/>
</g>
<defs>
<clipPath id="clip0_23_273">
<rect width="50" height="57.1429" fill="white" transform="translate(22 14)"/>
</clipPath>
</defs>
</svg>
